<?xml version="1.0" standalone="no"?><!DOCTYPE svg PUBLIC "-//W3C//DTD SVG 1.1//EN" "http://www.w3.org/Graphics/SVG/1.1/DTD/svg11.dtd"><svg class="icon" width="2000px" height="2000.00px" viewBox="0 0 1024 1024" version="1.1" xmlns="http://www.w3.org/2000/svg"><path d="M512.00002 0c282.772 0 512 229.228 512 512S794.77202 1024 512.00002 1024 0.00002 794.772 0.00002 512 229.22802 0 512.00002 0z" fill="#64B3F5" /><path d="M452.80202 28.844c4.278 0 8.314 1.012 11.888 2.818a21.384 21.384 0 0 1 15.014-6.126c10.116 0 18.6 7.004 20.868 16.428a16.994 16.994 0 0 1 10.968 10.24c0.61-0.07 1.224-0.096 1.852-0.096a16.938 16.938 0 0 1 16.932 16.936c0 9.35-7.586 16.928-16.932 16.928a16.87 16.87 0 0 1-8.046-2.03 16.946 16.946 0 0 1-16.262 12.178c-4.7 0-8.956-1.92-12.026-5.018a16.91 16.91 0 0 1-12.036 5.018 16.924 16.924 0 0 1-11.572-4.568 16.88 16.88 0 0 1-12.49 5.51 16.852 16.852 0 0 1-11.884-4.87c-1.402 0.308-2.858 0.466-4.348 0.466-11.142 0-20.172-9.03-20.172-20.17 0-11.146 9.03-20.176 20.172-20.176 0.61 0 1.21 0.032 1.804 0.088 1.43-13.248 12.644-23.556 26.27-23.556z" fill="#FFFFFF" /><path d="M378.23202 35.734c21.112 0 38.222 17.11 38.222 38.22 0 21.106-17.11 38.216-38.222 38.216-21.11 0-38.22-17.11-38.22-38.216 0-21.11 17.11-38.22 38.22-38.22z" fill="#FFFF00" /><path d="M305.35802 82.166c3.368 0 6.552 0.796 9.364 2.218a16.856 16.856 0 0 1 11.83-4.824c7.97 0 14.65 5.522 16.442 12.942a13.36 13.36 0 0 1 8.64 8.072 13.344 13.344 0 0 1 14.798 13.262 13.346 13.346 0 0 1-19.682 11.738 13.352 13.352 0 0 1-22.288 5.64 13.3 13.3 0 0 1-9.48 3.952 13.294 13.294 0 0 1-9.112-3.596 13.306 13.306 0 0 1-9.846 4.338 13.262 13.262 0 0 1-9.364-3.834 15.984 15.984 0 0 1-3.426 0.366 15.894 15.894 0 1 1 1.42-31.718 20.822 20.822 0 0 1 20.704-18.556z" fill="#FFFFFF" /><path d="M865.89602 325.488l68.068 1.15 25.454-1.824 20.006-11.82 5.708 3.056c-21.554-51.984-51.416-99.638-87.94-141.328l-21.936 4.234-48.35-40.774-28.518-50.66-0.504-0.334-6.414 25.668-7.394 73.03-3.262 17.194-31.488-40.544-7.536 6.822-39.646-28.6-30.31 12.932-12.92-4.004-57.6 16.076-16.918-14.302-21.39 9.51-14.104-13.992-68.028 59.122-12.924-2.232h-44.544l-13.51-17.51-23.024 7.28-94.14-25.256-92.862 6.694-29.352-20.202-22.416-3.01c-57.81 58.41-101.634 130.67-126.112 211.346l18.114 1.064 63.52-32.038 33.168-8.998 16.3 7.306 58.004-43.92h32.732l31.832-10.908 42.142 28.366 16.87-10.634 28.664 21.354 16.862-18.546 14.414-8.264 77.784 73.47 45.532 14.618 34.85-29.242 19.676 6.194 60.148-40.474 35.418 15.182 13.496-6.184 65.204 25.282 11.238-11.792 51.158-9.562 24.172 7.31 32.608-7.306z" fill="#B1D7B3" /><path d="M985.13202 316.052a508.38 508.38 0 0 1 33.164 119.372l-3.294 1.206-13.506 21.958-21.958 5.066-55.726 35.038-49.816 16.886-33.772-45.592-39.688-27.442-28.284 7.174-11.398 21.112-26.178 7.606-5.488 24.35-30.814 29.26-15.2-19.836-22.38-13.938-8.864-19.418-87.808-53.628-103.856 51.516-39.688-35.884-29.132 23.698-31.662 54.402-89.078 3.62-52.354-14.174-28.702-16.886-30.402 8.448-22.8-5.914-28.702-26.168-21.116-2.964-36.306 23.22-26.172 16.882H3.46402L0.06002 507.368c0.444-50.106 8.078-98.484 21.93-144.164l18.114 1.068 63.52-32.038 33.168-8.998 16.3 7.306 58.004-43.92h32.732l31.832-10.908 42.142 28.366 16.87-10.634 28.664 21.354 16.862-18.546 14.414-8.264 77.784 73.47 45.532 14.618 34.85-29.242 19.676 6.194 60.148-40.474 35.418 15.182 13.496-6.184 65.204 25.282 11.238-11.792 51.158-9.562 24.172 7.31 32.61-7.31 68.068 1.15 25.454-1.824 20.006-11.82 5.706 3.064z" fill="#AED489" /><path d="M1018.29602 435.424A516.166 516.166 0 0 1 1024.00002 512c0 46.344-6.194 91.226-17.73 133.92l-22.298 13.202-44.296-33.034-11.796 8.984-52.258-44.388-20.236-2.814-48.19 14.102-20.226-15.196-21.354 18.004-27.676-11.288-18.54 4.494-28.66 14.05-9.552 16.3-28.656 14.61-21.024 1.992-66.634 35.098-60.88-28.834-25.654 8.036-15.182-25.284-45.514 12.924-35.404-36.522-46.64-19.666-25.578 10.544-16.18-14.55-46.648 34.276-14.422-8.924-29.784 44.954-67.42 2.81-53.592-36.746-39.1 1.942-26.37-15.58-6.464 3.89A514.306 514.306 0 0 1 0.00002 512c0-1.548 0.046-3.082 0.06-4.63l3.404-2.346h20.688l26.172-16.882 36.306-23.226 21.116 2.964 28.702 26.168 22.8 5.914 30.402-8.448 28.702 16.886 52.354 14.174 89.078-3.62 31.662-54.402 29.132-23.698 39.688 35.884 103.856-51.516 87.808 53.628 8.864 19.418 22.38 13.938 15.2 19.836 30.814-29.26 5.488-24.35 26.178-7.606 11.398-21.112 28.284-7.174 39.688 27.442 33.772 45.592 49.816-16.886 55.726-35.038 21.958-5.066 13.506-21.958 3.294-1.202z" fill="#86B850" /><path d="M247.19402 620.96l-14.422-8.924-29.784 44.954-67.42 2.81-53.592-36.746-39.1 1.942-26.37-15.58-6.464 3.89C57.05802 847.548 263.91202 1024 512.00002 1024c236.43 0 435.392-160.266 494.272-378.082l-22.298 13.202-44.296-33.034-11.796 8.984-52.258-44.388-20.236-2.814-48.19 14.102-20.226-15.196-21.354 18.004-27.676-11.288-18.54 4.494-28.66 14.05-9.552 16.3-28.656 14.61-21.024 1.992-66.634 35.098-60.88-28.834-25.654 8.036-15.182-25.284-45.514 12.924-35.404-36.522-46.64-19.666-25.578 10.544-16.18-14.55-46.65 34.278z" fill="#5E9234" /><path d="M409.74602 755.658L183.63002 832.046V330.93l226.116-76.392zM877.24802 740.378l-226.112 76.392V315.652l226.112-76.388zM651.13602 816.77l-241.39-61.112v-501.12l241.39 61.114z" fill="#FFFFFF" /><path d="M651.13602 348.5l-241.39-62.64v-0.256l-195.56 67.256v436.612l195.56-66.918v0.004l241.39 61.362 195.556-65.472V281.838z" fill="#FFFFFF" /><path d="M427.59402 290.492c4.782 29.064 10.322 61.734 13.624 78.002 37.85-5.552 86.472-12.916 96.586-15.562l-8.302-35.992-101.908-26.448z m115.128 29.874l16.084 76.324 105.048 2.976 68.188-51.896 7.536-29.42-88.44 30.15-108.416-28.134z" fill="#86B850" /><path d="M398.11402 387.142c4.344 25.508 7.998 46.72 8.572 49.208l-0.084 0.004 0.338 1.774-47.618 7.384-1.524-12.222 33.948-6.204-21.034-128.06-108.636 37.36 78.916 185.518 132.916-19.864 75.922-97.004-8.984-38.926-142.732 21.032z m-15.57-92.178c2.052 12.214 8.016 47.666 13.51 80.046 4.232-0.6 16.566-2.358 32.324-4.646l-13.662-83.218-4.97-1.288v-0.258l-27.202 9.364z" fill="#86B850" /><path d="M214.18602 421.068h50.348l-34.106-73.796-16.242 5.588zM308.37802 569.17l-43.124-31.208-35.624 63.298-6.66-3.748 36.054-64.054-44.838-32.444v130.058l65.696 11.53 28.496-73.432z m-94.192-77.584l97.046 70.22 8.37-21.568-51.54-111.53h-53.876v62.878z" fill="#BBBBBB" /><path d="M314.07202 755.296l2.478-25.61-38.198-55.002s-43.34-9.424-64.166-12.728v127.514l99.886-34.174z" fill="#86B850" /><path d="M351.68802 723.576l3.134 17.77 54.924-18.792v0.004l126.668 32.198 1.662-54.102-80.974-15.276z" fill="#BBBBBB" /><path d="M676.03602 740.378h-126.562l-0.352 17.608 102.014 25.934 48.044-16.086zM616.56202 669.814l-66.264 29.316-0.674 33.608h119.974z" fill="#86B850" /><path d="M711.83802 618.848l22.654 41.072 43.202-24.782-23.246-40.734zM805.84402 320.238l40.848 41.306v-76.42zM743.12802 518.27l39.528 70.09 64.036-39.716v-94.606zM846.69202 377.134l-49.18-49.73-51.27 44.07 56.69 96.802 43.76-27.138zM705.05402 507.836l-42.862 12.332 10.27 43.288-10.664 2.534-10.158-42.784-43.282 12.448 19.86 119.166 121.076-69.452z" fill="#BBBBBB" /><path d="M828.67402 724.482l-45.834-80.328-53.096 30.304-5.016-8.942 0.256-0.146-22.658-41.066-72.486 41.586 79.814 98.44 119.02-39.848z m18.018-162.936l-58.644 36.372 58.644 103.984v-140.356zM737.79202 378.74l-49.404 42.468 49.348 87.508 55.874-34.658z" fill="#BBBBBB" /><path d="M287.51802 428.708v-7.64h-73.332v7.64h53.876zM214.18602 501.014l44.838 32.444-36.054 64.056 6.66 3.746 35.624-63.298 43.124 31.208 2.046 1.478 4.478-6.188-3.67-2.654-97.046-70.22zM846.69202 548.644l-64.036 39.714-39.528-70.088 103.564-64.232v-12.9l-43.76 27.138-56.688-96.802 51.268-44.072 49.18 49.73v-15.59l-40.846-41.306 40.846-35.114v-3.286l-50.742 17.294-6.262 4.766-1.942-1.966-6.304 2.148-3.536 3.496 2.988 3.02-48.85 37.176-68.188 51.896-2.024 1.544 18.188 20.786 7.784 55.598 17.254 30.24 44.242 77.532-121.078 69.452-5.018 2.876-1.094-1.35-9.166 9.17 3.624 4.298 53.038 62.924H545.72602l-4.586 7.64H676.04202l23.144 27.456 10.472-3.504-79.814-98.44 72.486-41.586 22.658 41.066-0.256 0.146 5.016 8.942 53.096-30.304 45.834 80.328 18.018-6.034v-16.548l-58.644-103.984 58.644-36.372v-12.898z m-158.304-127.436l49.404-42.468 55.818 95.318-55.874 34.656-49.348-87.506z m46.104 238.712l-22.654-41.07 42.61-24.446 23.246 40.736-43.202 24.78z" fill="#606060" /><path d="M529.50402 316.938l8.302 35.992c-10.114 2.648-58.736 10.01-96.586 15.562-3.302-16.268-8.842-48.936-13.624-78.002l-12.878-3.344 13.662 83.218a10638.07 10638.07 0 0 1-32.324 4.646c-5.494-32.38-11.458-67.834-13.51-80.046l-11.83 4.062 21.034 128.06-33.948 6.204 1.524 12.222 47.618-7.384-0.338-1.774 0.084-0.004c-0.574-2.488-4.228-23.698-8.572-49.208l142.732-21.032 8.984 38.926 3.228 14.01 7.674 1.52 1.788-2.552 0.792 0.06-4.508-21.384-16.084-76.324-13.22-3.428z" fill="#FFFFFF" /><path d="M460.16402 544.82l-52.296 7.988-6.074 46.702-10.872-1.416 5.666-43.558-46.43 7.092-36.668 93.196 24.446 27.498 110.004-29.028z" fill="#BBBBBB" /><path d="M560.73402 420.568l-59.322 84.532 183.332-33.612-22.914-45.83-98.516-7.584-0.792-0.058z" fill="#86B850" /><path d="M490.72002 547.876l-3.674 35.138h101.474l-6.134-44.306zM480.01802 650.238l62.644 16.808 53.472-29.03-5.076-36.668h-105.926z" fill="#BBBBBB" /><path d="M672.46202 563.456l-10.27-43.29-3.926-16.542a26.29 26.29 0 0 1-10.06 5.1l3.436 14.48 10.158 42.784 10.662-2.532zM401.79402 599.51l6.076-46.702 1.86-14.278c-3.542 1.182-7.298 1.62-11.214 1.2l-1.924 14.806-5.666 43.558 10.868 1.416z" fill="#606060" /><path d="M550.76202 130.534c-51.008 0-92.358 41.354-92.358 92.358 0 73.78 92.358 201.57 92.358 201.57s92.368-123.148 92.368-201.57c0-51.004-41.356-92.358-92.368-92.358z m0 163.068c-39.046 0-70.702-31.656-70.702-70.712 0-39.042 31.656-70.702 70.702-70.702 39.05 0 70.702 31.66 70.702 70.702 0 39.056-31.652 70.712-70.702 70.712z" fill="#F3501E" /><path d="M551.11402 130.534a1.84 1.84 0 0 0-0.348 0.018v21.656s0.114-0.018 0.348-0.018c39.046 0 70.528 31.66 70.528 70.702 0 39.056-31.39 70.712-70.436 70.712-0.238 0-0.44-0.018-0.44-0.018v129.892c0 0.644 0.348 0.984 0.348 0.984s92.368-123.148 92.368-201.57c0-51.004-41.36-92.358-92.368-92.358z" fill="#E54A18" /><path d="M550.76602 152.19c-39.05 0-70.706 31.66-70.706 70.702 0 39.05 31.656 70.706 70.706 70.706h0.44c38.838-0.238 70.258-31.802 70.258-70.706 0-38.922-31.464-70.51-70.344-70.702h-0.354z" fill="#FFFFFF" /></svg>